<svg xmlns="http://www.w3.org/2000/svg" xmlns:xlink="http://www.w3.org/1999/xlink" width="500" zoomAndPan="magnify" viewBox="0 0 375 374.999991" height="500" preserveAspectRatio="xMidYMid meet" version="1.0"><defs><clipPath id="7f4b7a83e7"><path d="M 42.929688 37.5 L 332.429688 37.5 L 332.429688 337.5 L 42.929688 337.5 Z M 42.929688 37.5 " clip-rule="nonzero"/></clipPath></defs><rect x="-37.5" width="450" fill="#ffffff" y="-37.499999" height="449.999989" fill-opacity="1"/><rect x="-37.5" width="450" fill="#ffffff" y="-37.499999" height="449.999989" fill-opacity="1"/><path stroke-linecap="butt" transform="matrix(0.749813, 0, 0, 0.749809, -15.993574, -51.732309)" fill="none" stroke-linejoin="miter" d="M 423.482564 334.566713 L 442.820725 335.483613 C 443.857442 335.52529 444.378406 335.030372 444.378406 333.99365 C 445.696443 254.812053 390.453486 191.222963 312.99665 177.427788 C 305.526035 176.109744 296.534207 176.042019 288.282147 175.500214 C 286.932852 175.41165 286.24518 174.687508 286.224342 173.338206 L 286.088891 156.328672 C 286.062843 153.536295 284.656242 152.259929 281.858668 152.509992 C 194.263885 160.084835 125.496719 225.200355 122.287584 314.519947 C 122.240697 316.077635 121.438414 316.827826 119.885943 316.786149 L 101.157309 316.275602 C 100.844731 316.270393 100.542573 316.31728 100.250833 316.431892 C 99.959094 316.541295 99.698612 316.702794 99.474598 316.91639 C 99.245374 317.129986 99.073456 317.37484 98.948425 317.656162 C 98.823393 317.937483 98.760878 318.234434 98.755668 318.541804 C 98.041948 407.694687 166.069347 472.60703 254.846717 476.394452 C 256.154335 476.462177 256.810749 477.149852 256.810749 478.457476 L 256.909732 496.206782 C 256.914942 496.618345 256.998296 497.014279 257.165004 497.389375 C 257.331712 497.76968 257.566146 498.097888 257.868305 498.374 C 258.170463 498.655322 258.514299 498.863708 258.899812 498.993949 C 259.285325 499.129401 259.681257 499.181497 260.087609 499.150239 C 334.871902 493.570695 400.091308 443.396476 416.72046 369.356811 C 417.918675 364.016911 419.481565 353.003694 421.419549 336.327577 C 421.450807 336.077514 421.523742 335.843079 421.643563 335.619064 C 421.763385 335.400258 421.919674 335.207501 422.107221 335.040792 C 422.299977 334.879292 422.513572 334.75947 422.753215 334.676116 C 422.987649 334.592761 423.232502 334.556293 423.482564 334.566713 " stroke="#808080" stroke-width="2" stroke-opacity="1" stroke-miterlimit="4"/><path stroke-linecap="butt" transform="matrix(0.749813, 0, 0, 0.749809, -15.993574, -51.732309)" fill="none" stroke-linejoin="miter" d="M 167.283192 317.630113 L 148.554558 317.359211 C 148.205512 317.348792 147.866886 317.411308 147.543889 317.541549 C 147.220892 317.671791 146.934362 317.864548 146.689509 318.114612 C 146.444656 318.364675 146.262319 318.656416 146.142497 318.979415 C 146.017466 319.307623 145.96537 319.646251 145.986208 319.995298 C 148.690008 383.589598 193.013573 426.798504 255.492712 428.793803 C 255.779242 428.799013 256.060562 428.866738 256.321043 428.981351 C 256.586735 429.095963 256.821168 429.262672 257.024344 429.471059 C 257.22752 429.679445 257.383809 429.91388 257.493211 430.184782 C 257.597404 430.455684 257.65471 430.731796 257.65471 431.023537 L 257.753693 449.653275 C 257.753693 449.88771 257.800579 450.116935 257.894353 450.330531 C 257.988126 450.549336 258.123577 450.736884 258.295495 450.898384 C 258.472622 451.059883 258.670588 451.179705 258.894603 451.25264 C 259.118617 451.330785 259.347841 451.362043 259.582274 451.341205 C 322.733456 446.98072 369.255486 398.265205 373.88685 335.68158 C 373.975414 334.353117 374.689134 333.722748 376.01759 333.790474 L 393.08956 334.535455 C 395.704797 334.644858 397.012415 333.404959 397.012415 330.815759 C 397.486491 269.315742 347.552151 224.116746 287.302736 222.866428 C 286.312905 222.84038 285.807571 222.335043 285.781523 221.345208 L 285.614814 202.814453 C 285.609605 202.319536 285.500203 201.845457 285.291817 201.392216 C 285.083432 200.944186 284.791692 200.558671 284.411389 200.235672 C 284.036295 199.912673 283.609105 199.683448 283.135029 199.553207 C 282.660952 199.417756 282.176456 199.391708 281.69196 199.469852 C 218.572037 209.477606 173.232593 251.399727 169.450399 315.634814 C 169.356626 316.963277 168.637696 317.630113 167.283192 317.630113 " stroke="#808080" stroke-width="2" stroke-opacity="1" stroke-miterlimit="4"/><g clip-path="url(#7f4b7a83e7)"><path fill="#ffffff" d="M -15.992188 -51.730469 L 1251.507812 -51.730469 L 1251.507812 455.265625 L -15.992188 455.265625 Z M 301.539062 199.128906 L 316.039062 199.816406 C 316.816406 199.847656 317.207031 199.476562 317.207031 198.699219 C 318.195312 139.328125 276.773438 91.648438 218.695312 81.304688 C 213.09375 80.316406 206.351562 80.265625 200.164062 79.859375 C 199.152344 79.792969 198.636719 79.25 198.621094 78.238281 L 198.519531 65.484375 C 198.5 63.390625 197.445312 62.433594 195.347656 62.621094 C 129.667969 68.300781 78.105469 117.125 75.699219 184.097656 C 75.664062 185.265625 75.0625 185.828125 73.898438 185.796875 L 59.855469 185.414062 C 59.621094 185.410156 59.394531 185.445312 59.175781 185.53125 C 58.957031 185.613281 58.761719 185.734375 58.59375 185.894531 C 58.421875 186.054688 58.292969 186.238281 58.199219 186.449219 C 58.105469 186.660156 58.058594 186.882812 58.054688 187.113281 C 57.519531 253.960938 108.527344 302.632812 175.09375 305.472656 C 176.074219 305.523438 176.566406 306.039062 176.566406 307.019531 L 176.640625 320.328125 C 176.644531 320.636719 176.707031 320.933594 176.832031 321.214844 C 176.957031 321.5 177.132812 321.746094 177.359375 321.953125 C 177.585938 322.164062 177.84375 322.320312 178.132812 322.417969 C 178.421875 322.519531 178.71875 322.558594 179.023438 322.535156 C 235.097656 318.351562 284 280.730469 296.46875 225.214844 C 297.367188 221.210938 298.539062 212.953125 299.996094 200.449219 C 300.015625 200.261719 300.070312 200.085938 300.160156 199.917969 C 300.25 199.753906 300.367188 199.609375 300.507812 199.484375 C 300.652344 199.363281 300.8125 199.273438 300.992188 199.210938 C 301.167969 199.148438 301.351562 199.121094 301.539062 199.128906 Z M 588.402344 173.398438 C 589.210938 175.851562 589.769531 177.828125 590.074219 179.332031 C 590.15625 179.738281 590.359375 180.074219 590.683594 180.339844 C 591.003906 180.605469 591.378906 180.742188 591.796875 180.75 L 606.957031 180.851562 C 607.136719 180.855469 607.308594 180.816406 607.472656 180.746094 C 607.636719 180.671875 607.78125 180.570312 607.902344 180.4375 C 608.023438 180.304688 608.109375 180.152344 608.167969 179.984375 C 608.222656 179.8125 608.242188 179.636719 608.226562 179.457031 C 605.257812 149.496094 575.371094 140.089844 549.945312 147.820312 C 524.441406 155.554688 520.132812 187.925781 546.34375 198.875 C 557.007812 203.320312 567.902344 207.125 579.023438 210.285156 C 585.222656 212.042969 589.109375 214.019531 590.683594 216.214844 C 607.617188 239.917969 551.667969 247.546875 544.445312 221.589844 C 544.054688 220.203125 543.144531 219.511719 541.707031 219.511719 L 527.714844 219.460938 C 526.242188 219.460938 525.644531 220.179688 525.914062 221.617188 C 528.128906 233.597656 534.144531 242.082031 543.960938 247.066406 C 565.207031 257.890625 605.941406 257.941406 611.214844 227.777344 C 618.695312 185.011719 547.6875 197.382812 546.371094 173.933594 C 545.40625 156.71875 583.203125 157.632812 588.402344 173.398438 Z M 484.769531 147.289062 C 484.769531 147.023438 484.675781 146.796875 484.488281 146.609375 C 484.300781 146.421875 484.074219 146.328125 483.808594 146.328125 L 466.773438 146.328125 C 466.503906 146.328125 466.277344 146.421875 466.089844 146.609375 C 465.902344 146.796875 465.808594 147.023438 465.808594 147.289062 L 465.808594 249.652344 C 465.808594 249.917969 465.902344 250.144531 466.089844 250.332031 C 466.277344 250.523438 466.503906 250.617188 466.773438 250.617188 L 483.808594 250.617188 C 484.074219 250.617188 484.300781 250.523438 484.488281 250.332031 C 484.675781 250.144531 484.769531 249.917969 484.769531 249.652344 Z M 391.382812 207.140625 C 391.382812 206.976562 391.414062 206.816406 391.476562 206.664062 C 391.539062 206.511719 391.628906 206.378906 391.746094 206.261719 C 391.859375 206.144531 391.996094 206.054688 392.148438 205.992188 C 392.300781 205.929688 392.457031 205.898438 392.625 205.898438 L 439.976562 205.824219 C 440.140625 205.824219 440.300781 205.789062 440.453125 205.726562 C 440.605469 205.664062 440.738281 205.574219 440.855469 205.457031 C 440.972656 205.34375 441.0625 205.207031 441.125 205.054688 C 441.1875 204.902344 441.21875 204.746094 441.21875 204.582031 L 441.195312 191.523438 C 441.195312 191.359375 441.160156 191.203125 441.097656 191.050781 C 441.035156 190.898438 440.945312 190.761719 440.828125 190.648438 C 440.714844 190.53125 440.578125 190.441406 440.425781 190.378906 C 440.273438 190.316406 440.117188 190.28125 439.953125 190.28125 L 392.625 190.359375 C 392.457031 190.359375 392.300781 190.328125 392.148438 190.265625 C 391.996094 190.203125 391.859375 190.113281 391.746094 189.996094 C 391.628906 189.878906 391.539062 189.746094 391.476562 189.59375 C 391.414062 189.441406 391.382812 189.28125 391.382812 189.117188 L 391.382812 164.855469 C 391.382812 164.691406 391.414062 164.535156 391.476562 164.382812 C 391.539062 164.230469 391.628906 164.09375 391.746094 163.980469 C 391.859375 163.863281 391.996094 163.773438 392.148438 163.710938 C 392.300781 163.644531 392.457031 163.613281 392.625 163.613281 L 445.222656 163.539062 C 445.390625 163.539062 445.546875 163.507812 445.699219 163.445312 C 445.851562 163.382812 445.984375 163.292969 446.101562 163.175781 C 446.21875 163.058594 446.308594 162.925781 446.371094 162.773438 C 446.433594 162.621094 446.464844 162.460938 446.464844 162.296875 L 446.566406 148.660156 C 446.566406 148.492188 446.535156 148.335938 446.472656 148.183594 C 446.410156 148.03125 446.320312 147.898438 446.203125 147.78125 C 446.085938 147.664062 445.953125 147.574219 445.800781 147.511719 C 445.648438 147.449219 445.492188 147.417969 445.324219 147.417969 L 374.902344 147.492188 C 374.738281 147.492188 374.582031 147.523438 374.429688 147.585938 C 374.277344 147.648438 374.140625 147.738281 374.023438 147.855469 C 373.910156 147.972656 373.820312 148.105469 373.753906 148.257812 C 373.691406 148.410156 373.660156 148.570312 373.660156 148.734375 L 373.636719 250.109375 C 373.636719 250.273438 373.667969 250.433594 373.730469 250.585938 C 373.792969 250.734375 373.882812 250.871094 374 250.988281 C 374.117188 251.101562 374.25 251.191406 374.402344 251.257812 C 374.554688 251.320312 374.714844 251.351562 374.878906 251.351562 L 446.566406 251.425781 C 446.734375 251.425781 446.890625 251.394531 447.042969 251.332031 C 447.195312 251.269531 447.328125 251.179688 447.445312 251.0625 C 447.5625 250.945312 447.652344 250.8125 447.714844 250.660156 C 447.777344 250.507812 447.808594 250.347656 447.808594 250.183594 L 447.835938 236.648438 C 447.835938 236.484375 447.804688 236.324219 447.742188 236.171875 C 447.675781 236.019531 447.589844 235.886719 447.472656 235.769531 C 447.355469 235.652344 447.21875 235.5625 447.070312 235.5 C 446.917969 235.4375 446.757812 235.40625 446.59375 235.40625 L 392.597656 235.40625 C 392.433594 235.40625 392.273438 235.375 392.121094 235.3125 C 391.96875 235.25 391.835938 235.160156 391.71875 235.042969 C 391.601562 234.925781 391.511719 234.792969 391.449219 234.640625 C 391.386719 234.488281 391.355469 234.328125 391.355469 234.164062 Z M 664.554688 254.191406 C 665.894531 254.191406 667.226562 254.128906 668.558594 253.992188 C 669.894531 253.859375 671.214844 253.660156 672.527344 253.394531 C 673.839844 253.125 675.140625 252.792969 676.421875 252.394531 C 677.703125 251.996094 678.960938 251.53125 680.199219 251.003906 C 681.4375 250.476562 682.644531 249.890625 683.828125 249.238281 C 685.007812 248.589844 686.15625 247.882812 687.269531 247.117188 C 688.382812 246.351562 689.460938 245.53125 690.496094 244.65625 C 691.53125 243.78125 692.523438 242.855469 693.472656 241.878906 C 694.417969 240.902344 695.320312 239.882812 696.171875 238.8125 C 697.019531 237.746094 697.820312 236.640625 698.566406 235.492188 C 699.308594 234.34375 700 233.160156 700.632812 231.941406 C 701.265625 230.722656 701.839844 229.476562 702.355469 228.199219 C 702.867188 226.925781 703.320312 225.625 703.710938 224.304688 C 704.101562 222.980469 704.429688 221.640625 704.691406 220.285156 C 704.957031 218.929688 705.15625 217.566406 705.289062 216.191406 C 705.421875 214.816406 705.488281 213.4375 705.492188 212.054688 C 705.496094 210.671875 705.433594 209.292969 705.304688 207.917969 C 705.175781 206.539062 704.980469 205.175781 704.722656 203.816406 C 704.464844 202.460938 704.140625 201.121094 703.753906 199.796875 C 703.367188 198.476562 702.921875 197.175781 702.410156 195.894531 C 701.902344 194.617188 701.332031 193.367188 700.703125 192.148438 C 700.074219 190.929688 699.386719 189.742188 698.648438 188.59375 C 697.90625 187.441406 697.109375 186.332031 696.265625 185.261719 C 695.417969 184.191406 694.519531 183.167969 693.574219 182.1875 C 692.632812 181.207031 691.640625 180.28125 690.609375 179.402344 C 689.578125 178.523438 688.503906 177.699219 687.394531 176.929688 C 686.28125 176.15625 685.136719 175.445312 683.957031 174.792969 C 682.777344 174.136719 681.570312 173.546875 680.335938 173.015625 C 679.097656 172.484375 677.839844 172.015625 676.5625 171.613281 C 675.28125 171.210938 673.984375 170.871094 672.671875 170.601562 C 671.359375 170.328125 670.039062 170.121094 668.707031 169.984375 C 667.375 169.847656 666.039062 169.777344 664.703125 169.773438 C 663.363281 169.773438 662.027344 169.839844 660.695312 169.972656 C 659.363281 170.105469 658.042969 170.304688 656.730469 170.570312 C 655.414062 170.839844 654.117188 171.171875 652.835938 171.570312 C 651.554688 171.96875 650.296875 172.433594 649.058594 172.960938 C 647.820312 173.488281 646.613281 174.074219 645.429688 174.726562 C 644.25 175.375 643.101562 176.082031 641.988281 176.847656 C 640.871094 177.613281 639.796875 178.433594 638.761719 179.308594 C 637.726562 180.183594 636.734375 181.109375 635.785156 182.085938 C 634.835938 183.0625 633.9375 184.082031 633.085938 185.152344 C 632.234375 186.21875 631.4375 187.324219 630.691406 188.472656 C 629.945312 189.621094 629.257812 190.804688 628.625 192.023438 C 627.992188 193.242188 627.417969 194.488281 626.902344 195.765625 C 626.390625 197.039062 625.9375 198.339844 625.546875 199.660156 C 625.15625 200.984375 624.828125 202.324219 624.5625 203.679688 C 624.300781 205.035156 624.101562 206.398438 623.96875 207.773438 C 623.835938 209.148438 623.765625 210.527344 623.765625 211.910156 C 623.761719 213.292969 623.824219 214.671875 623.953125 216.046875 C 624.082031 217.425781 624.277344 218.789062 624.535156 220.148438 C 624.792969 221.503906 625.117188 222.84375 625.503906 224.167969 C 625.890625 225.488281 626.335938 226.789062 626.847656 228.070312 C 627.355469 229.347656 627.925781 230.597656 628.554688 231.816406 C 629.183594 233.035156 629.867188 234.222656 630.609375 235.371094 C 631.351562 236.523438 632.144531 237.632812 632.992188 238.703125 C 633.839844 239.773438 634.738281 240.796875 635.679688 241.777344 C 636.625 242.757812 637.613281 243.683594 638.648438 244.5625 C 639.679688 245.441406 640.753906 246.265625 641.863281 247.039062 C 642.976562 247.808594 644.121094 248.519531 645.300781 249.171875 C 646.480469 249.828125 647.6875 250.417969 648.921875 250.949219 C 650.15625 251.480469 651.414062 251.949219 652.695312 252.351562 C 653.976562 252.753906 655.273438 253.09375 656.582031 253.363281 C 657.894531 253.636719 659.21875 253.84375 660.550781 253.980469 C 661.882812 254.117188 663.214844 254.1875 664.554688 254.191406 Z M 778.09375 221.3125 C 775.121094 231.90625 769.195312 237.59375 760.324219 238.371094 C 729.523438 241.109375 727.320312 191.804688 751.503906 186.023438 C 765.140625 182.78125 773.945312 188.121094 777.917969 202.046875 C 778.136719 202.804688 778.644531 203.1875 779.4375 203.1875 L 794.445312 203.058594 C 794.582031 203.058594 794.710938 203.027344 794.832031 202.96875 C 794.957031 202.910156 795.058594 202.832031 795.144531 202.730469 C 795.230469 202.625 795.289062 202.511719 795.324219 202.382812 C 795.355469 202.253906 795.359375 202.125 795.332031 201.996094 C 791.023438 177.277344 771.402344 166.757812 747.878906 171.550781 C 707.089844 179.890625 707.113281 242.402344 746.941406 252.136719 C 770.972656 258.019531 791.074219 246.710938 795.230469 221.4375 C 795.246094 221.34375 795.242188 221.253906 795.214844 221.164062 C 795.191406 221.074219 795.148438 220.992188 795.085938 220.921875 C 795.023438 220.851562 794.953125 220.796875 794.867188 220.757812 C 794.78125 220.71875 794.691406 220.703125 794.597656 220.703125 L 778.855469 220.726562 C 778.449219 220.726562 778.195312 220.921875 778.09375 221.3125 Z M 847.816406 254.214844 C 849.152344 254.222656 850.488281 254.160156 851.820312 254.03125 C 853.152344 253.902344 854.476562 253.707031 855.789062 253.445312 C 857.105469 253.183594 858.402344 252.851562 859.6875 252.457031 C 860.96875 252.0625 862.230469 251.605469 863.46875 251.082031 C 864.707031 250.558594 865.921875 249.976562 867.105469 249.328125 C 868.289062 248.683594 869.4375 247.980469 870.554688 247.214844 C 871.671875 246.453125 872.75 245.636719 873.789062 244.765625 C 874.828125 243.890625 875.824219 242.96875 876.773438 241.996094 C 877.726562 241.023438 878.628906 240.003906 879.484375 238.941406 C 880.339844 237.875 881.140625 236.769531 881.890625 235.625 C 882.640625 234.476562 883.332031 233.296875 883.96875 232.078125 C 884.605469 230.863281 885.183594 229.617188 885.703125 228.339844 C 886.222656 227.066406 886.679688 225.769531 887.074219 224.445312 C 887.472656 223.125 887.804688 221.785156 888.070312 220.429688 C 888.339844 219.078125 888.542969 217.710938 888.679688 216.335938 C 888.820312 214.960938 888.890625 213.578125 888.898438 212.195312 C 888.90625 210.8125 888.847656 209.433594 888.722656 208.054688 C 888.601562 206.679688 888.410156 205.3125 888.15625 203.953125 C 887.902344 202.59375 887.585938 201.253906 887.203125 199.929688 C 886.824219 198.601562 886.378906 197.300781 885.875 196.019531 C 885.367188 194.738281 884.804688 193.484375 884.179688 192.261719 C 883.554688 191.039062 882.875 189.851562 882.136719 188.699219 C 881.398438 187.542969 880.609375 186.429688 879.765625 185.355469 C 878.921875 184.28125 878.027344 183.253906 877.085938 182.269531 C 876.144531 181.289062 875.160156 180.355469 874.128906 179.472656 C 873.101562 178.589844 872.03125 177.761719 870.921875 176.988281 C 869.8125 176.210938 868.671875 175.496094 867.492188 174.835938 C 866.316406 174.179688 865.113281 173.582031 863.878906 173.046875 C 862.644531 172.511719 861.386719 172.039062 860.109375 171.628906 C 858.832031 171.222656 857.535156 170.878906 856.226562 170.601562 C 854.914062 170.328125 853.59375 170.117188 852.261719 169.972656 C 850.929688 169.832031 849.59375 169.757812 848.257812 169.75 C 846.917969 169.742188 845.582031 169.804688 844.25 169.933594 C 842.917969 170.0625 841.59375 170.257812 840.28125 170.519531 C 838.964844 170.78125 837.667969 171.113281 836.386719 171.507812 C 835.101562 171.902344 833.839844 172.359375 832.601562 172.882812 C 831.363281 173.40625 830.152344 173.988281 828.96875 174.636719 C 827.785156 175.28125 826.632812 175.984375 825.515625 176.75 C 824.398438 177.511719 823.320312 178.328125 822.28125 179.199219 C 821.242188 180.074219 820.25 180.996094 819.296875 181.96875 C 818.347656 182.941406 817.441406 183.960938 816.589844 185.023438 C 815.734375 186.089844 814.929688 187.195312 814.183594 188.339844 C 813.433594 189.488281 812.738281 190.667969 812.101562 191.886719 C 811.464844 193.101562 810.886719 194.347656 810.367188 195.625 C 809.847656 196.898438 809.390625 198.195312 808.996094 199.519531 C 808.601562 200.839844 808.269531 202.179688 808 203.535156 C 807.730469 204.890625 807.527344 206.253906 807.390625 207.628906 C 807.253906 209.007812 807.179688 210.386719 807.171875 211.769531 C 807.164062 213.152344 807.222656 214.53125 807.347656 215.910156 C 807.472656 217.285156 807.660156 218.652344 807.914062 220.011719 C 808.167969 221.371094 808.484375 222.710938 808.867188 224.039062 C 809.25 225.363281 809.691406 226.664062 810.199219 227.945312 C 810.703125 229.226562 811.269531 230.480469 811.894531 231.703125 C 812.519531 232.925781 813.199219 234.113281 813.9375 235.269531 C 814.671875 236.421875 815.464844 237.535156 816.308594 238.609375 C 817.152344 239.683594 818.042969 240.710938 818.984375 241.695312 C 819.925781 242.675781 820.910156 243.609375 821.941406 244.492188 C 822.972656 245.375 824.039062 246.203125 825.148438 246.980469 C 826.257812 247.753906 827.402344 248.46875 828.578125 249.128906 C 829.753906 249.785156 830.960938 250.382812 832.195312 250.917969 C 833.425781 251.453125 834.683594 251.925781 835.960938 252.335938 C 837.242188 252.742188 838.535156 253.085938 839.847656 253.363281 C 841.15625 253.636719 842.480469 253.847656 843.808594 253.992188 C 845.140625 254.132812 846.476562 254.207031 847.816406 254.214844 Z M 1060.925781 254.242188 C 1062.265625 254.242188 1063.597656 254.175781 1064.929688 254.042969 C 1066.261719 253.910156 1067.582031 253.710938 1068.894531 253.441406 C 1070.207031 253.175781 1071.503906 252.84375 1072.785156 252.441406 C 1074.066406 252.042969 1075.324219 251.582031 1076.5625 251.054688 C 1077.796875 250.527344 1079.007812 249.9375 1080.1875 249.289062 C 1081.367188 248.636719 1082.515625 247.929688 1083.628906 247.164062 C 1084.742188 246.394531 1085.816406 245.574219 1086.851562 244.699219 C 1087.886719 243.824219 1088.878906 242.898438 1089.828125 241.921875 C 1090.773438 240.945312 1091.671875 239.921875 1092.523438 238.855469 C 1093.375 237.789062 1094.171875 236.679688 1094.917969 235.53125 C 1095.660156 234.382812 1096.351562 233.199219 1096.984375 231.980469 C 1097.617188 230.761719 1098.1875 229.511719 1098.703125 228.234375 C 1099.21875 226.957031 1099.667969 225.660156 1100.058594 224.335938 C 1100.449219 223.011719 1100.777344 221.671875 1101.042969 220.316406 C 1101.304688 218.960938 1101.503906 217.59375 1101.636719 216.21875 C 1101.769531 214.84375 1101.835938 213.460938 1101.839844 212.078125 C 1101.84375 210.695312 1101.777344 209.316406 1101.652344 207.9375 C 1101.523438 206.5625 1101.328125 205.195312 1101.070312 203.839844 C 1100.8125 202.480469 1100.488281 201.140625 1100.101562 199.816406 C 1099.71875 198.492188 1099.269531 197.191406 1098.757812 195.910156 C 1098.25 194.632812 1097.679688 193.382812 1097.050781 192.164062 C 1096.425781 190.941406 1095.738281 189.753906 1095 188.605469 C 1094.257812 187.453125 1093.464844 186.339844 1092.617188 185.269531 C 1091.769531 184.199219 1090.875 183.175781 1089.929688 182.195312 C 1088.988281 181.214844 1088 180.285156 1086.964844 179.40625 C 1085.933594 178.527344 1084.863281 177.703125 1083.75 176.933594 C 1082.640625 176.160156 1081.496094 175.449219 1080.316406 174.796875 C 1079.140625 174.140625 1077.933594 173.546875 1076.699219 173.015625 C 1075.460938 172.484375 1074.207031 172.019531 1072.925781 171.613281 C 1071.648438 171.210938 1070.351562 170.871094 1069.039062 170.601562 C 1067.730469 170.328125 1066.410156 170.125 1065.078125 169.984375 C 1063.746094 169.847656 1062.414062 169.777344 1061.074219 169.773438 C 1059.738281 169.773438 1058.402344 169.839844 1057.070312 169.972656 C 1055.742188 170.105469 1054.417969 170.304688 1053.105469 170.574219 C 1051.792969 170.839844 1050.496094 171.171875 1049.21875 171.574219 C 1047.9375 171.972656 1046.675781 172.433594 1045.441406 172.960938 C 1044.203125 173.488281 1042.996094 174.078125 1041.816406 174.726562 C 1040.632812 175.378906 1039.488281 176.085938 1038.375 176.851562 C 1037.261719 177.621094 1036.1875 178.441406 1035.148438 179.316406 C 1034.113281 180.191406 1033.125 181.117188 1032.175781 182.09375 C 1031.226562 183.070312 1030.328125 184.09375 1029.480469 185.160156 C 1028.628906 186.226562 1027.832031 187.335938 1027.085938 188.484375 C 1026.339844 189.632812 1025.652344 190.816406 1025.019531 192.035156 C 1024.386719 193.253906 1023.8125 194.503906 1023.300781 195.78125 C 1022.785156 197.058594 1022.332031 198.355469 1021.941406 199.679688 C 1021.550781 201.003906 1021.226562 202.34375 1020.960938 203.699219 C 1020.699219 205.054688 1020.5 206.421875 1020.367188 207.796875 C 1020.234375 209.171875 1020.164062 210.554688 1020.164062 211.9375 C 1020.160156 213.320312 1020.222656 214.699219 1020.351562 216.078125 C 1020.480469 217.453125 1020.675781 218.820312 1020.933594 220.175781 C 1021.191406 221.535156 1021.511719 222.875 1021.898438 224.199219 C 1022.285156 225.523438 1022.734375 226.824219 1023.242188 228.105469 C 1023.753906 229.382812 1024.320312 230.632812 1024.949219 231.851562 C 1025.578125 233.074219 1026.261719 234.261719 1027.003906 235.410156 C 1027.746094 236.5625 1028.539062 237.675781 1029.386719 238.746094 C 1030.230469 239.816406 1031.128906 240.839844 1032.070312 241.820312 C 1033.015625 242.800781 1034.003906 243.730469 1035.035156 244.609375 C 1036.070312 245.488281 1037.140625 246.3125 1038.25 247.082031 C 1039.363281 247.855469 1040.507812 248.566406 1041.683594 249.21875 C 1042.863281 249.875 1044.070312 250.46875 1045.304688 251 C 1046.539062 251.53125 1047.796875 251.996094 1049.074219 252.402344 C 1050.355469 252.804688 1051.648438 253.144531 1052.960938 253.414062 C 1054.273438 253.6875 1055.59375 253.890625 1056.925781 254.03125 C 1058.253906 254.167969 1059.589844 254.238281 1060.925781 254.242188 Z M 981.375 185.265625 L 980.589844 174.640625 C 980.574219 174.390625 980.511719 174.148438 980.40625 173.921875 C 980.300781 173.691406 980.152344 173.488281 979.96875 173.316406 C 979.789062 173.140625 979.578125 173.007812 979.34375 172.914062 C 979.109375 172.816406 978.867188 172.769531 978.613281 172.765625 L 968.144531 172.589844 C 966.773438 172.554688 966.089844 173.222656 966.089844 174.589844 L 965.914062 249.804688 C 965.914062 250.835938 966.429688 251.351562 967.460938 251.351562 L 982.136719 251.425781 C 982.304688 251.425781 982.46875 251.394531 982.625 251.332031 C 982.78125 251.265625 982.921875 251.175781 983.042969 251.058594 C 983.164062 250.9375 983.257812 250.800781 983.324219 250.644531 C 983.390625 250.492188 983.425781 250.328125 983.429688 250.160156 C 983.597656 238.785156 983.71875 226.855469 983.785156 214.367188 C 983.871094 196.941406 993.207031 188.457031 1011.796875 188.914062 C 1012.285156 188.929688 1012.523438 188.695312 1012.507812 188.203125 L 1012.378906 172.589844 C 1012.378906 172.183594 1012.175781 171.964844 1011.769531 171.929688 C 999.382812 171.117188 989.859375 175.722656 983.203125 185.746094 C 982.136719 187.382812 981.527344 187.222656 981.375 185.265625 Z M 920.613281 185.289062 L 919.496094 174.488281 C 919.472656 174.238281 919.402344 174 919.289062 173.777344 C 919.179688 173.550781 919.027344 173.355469 918.84375 173.1875 C 918.660156 173.015625 918.449219 172.886719 918.21875 172.796875 C 917.984375 172.707031 917.742188 172.664062 917.496094 172.664062 L 906.136719 172.613281 C 905.972656 172.609375 905.816406 172.640625 905.664062 172.703125 C 905.511719 172.761719 905.378906 172.851562 905.261719 172.96875 C 905.144531 173.085938 905.054688 173.222656 904.992188 173.375 C 904.925781 173.527344 904.894531 173.6875 904.894531 173.855469 L 904.84375 250.640625 C 904.84375 251.113281 905.082031 251.351562 905.554688 251.351562 L 921.449219 251.324219 C 922.125 251.324219 922.464844 250.996094 922.464844 250.335938 C 922.597656 238.996094 922.617188 227.226562 922.515625 215.023438 C 922.363281 197.332031 931.773438 188.609375 950.753906 188.863281 C 950.957031 188.863281 951.128906 188.792969 951.273438 188.648438 C 951.417969 188.503906 951.488281 188.332031 951.488281 188.128906 L 951.335938 172.714844 C 951.320312 172.277344 951.09375 172.039062 950.652344 172.003906 C 938.316406 171.109375 928.886719 175.679688 922.363281 185.71875 C 921.382812 187.242188 920.796875 187.097656 920.613281 185.289062 Z M 1119.078125 250.792969 C 1117.015625 251.824219 1115.292969 251.546875 1113.90625 249.957031 C 1112.671875 248.519531 1111.902344 248.738281 1111.601562 250.617188 C 1111.347656 252.273438 1112.34375 253.335938 1114.589844 253.808594 C 1117.464844 254.433594 1119.992188 253.835938 1122.171875 252.011719 C 1122.878906 251.417969 1123.160156 250.667969 1123.007812 249.753906 C 1122.382812 246.003906 1120.023438 244.160156 1115.933594 244.226562 C 1115.765625 244.230469 1115.601562 244.203125 1115.445312 244.144531 C 1115.285156 244.085938 1115.144531 244 1115.019531 243.886719 C 1114.894531 243.773438 1114.796875 243.640625 1114.722656 243.488281 C 1114.648438 243.339844 1114.605469 243.179688 1114.589844 243.011719 L 1114.464844 241.769531 C 1114.449219 241.574219 1114.476562 241.390625 1114.550781 241.210938 C 1114.621094 241.03125 1114.730469 240.875 1114.875 240.746094 C 1115.015625 240.617188 1115.183594 240.527344 1115.371094 240.472656 C 1115.554688 240.421875 1115.746094 240.414062 1115.933594 240.449219 C 1117.726562 240.789062 1119.375 241.5 1120.878906 242.578125 C 1121.316406 242.902344 1121.648438 242.816406 1121.867188 242.328125 L 1122.347656 241.386719 C 1122.453125 241.167969 1122.476562 240.9375 1122.417969 240.699219 C 1122.363281 240.464844 1122.238281 240.269531 1122.042969 240.121094 C 1117.800781 236.808594 1114.050781 237.214844 1110.789062 241.335938 C 1110.476562 241.738281 1110.292969 242.191406 1110.238281 242.695312 C 1110.183594 243.203125 1110.265625 243.683594 1110.488281 244.136719 C 1110.710938 244.589844 1111.035156 244.949219 1111.464844 245.214844 C 1111.894531 245.476562 1112.363281 245.605469 1112.867188 245.597656 C 1115.605469 245.578125 1117.820312 246.449219 1119.507812 248.207031 C 1119.691406 248.390625 1119.820312 248.609375 1119.898438 248.855469 C 1119.976562 249.101562 1119.992188 249.355469 1119.949219 249.609375 C 1119.90625 249.867188 1119.808594 250.097656 1119.65625 250.304688 C 1119.503906 250.515625 1119.308594 250.675781 1119.078125 250.792969 Z M 1129.953125 249.324219 C 1130.011719 249.003906 1130.125 248.707031 1130.285156 248.425781 C 1130.445312 248.148438 1130.648438 247.902344 1130.890625 247.6875 C 1131.132812 247.476562 1131.402344 247.308594 1131.703125 247.1875 C 1132.003906 247.066406 1132.3125 246.996094 1132.636719 246.976562 C 1132.957031 246.960938 1133.273438 246.996094 1133.585938 247.085938 C 1133.894531 247.171875 1134.183594 247.308594 1134.445312 247.496094 C 1134.710938 247.679688 1134.9375 247.902344 1135.128906 248.164062 C 1135.320312 248.425781 1135.460938 248.710938 1135.554688 249.019531 C 1136.046875 250.726562 1136.914062 252.121094 1138.167969 253.203125 C 1138.363281 253.382812 1138.59375 253.476562 1138.859375 253.488281 C 1139.125 253.5 1139.363281 253.425781 1139.574219 253.261719 C 1139.785156 253.097656 1139.917969 252.886719 1139.972656 252.625 C 1140.027344 252.363281 1139.992188 252.117188 1139.863281 251.882812 L 1138.015625 248.207031 C 1137.609375 247.414062 1137.652344 246.644531 1138.140625 245.902344 C 1139.054688 244.480469 1139.46875 242.910156 1139.382812 241.1875 C 1139.363281 240.839844 1139.28125 240.511719 1139.136719 240.195312 C 1138.996094 239.882812 1138.800781 239.601562 1138.554688 239.359375 C 1138.308594 239.117188 1138.027344 238.925781 1137.710938 238.785156 C 1137.398438 238.644531 1137.066406 238.566406 1136.722656 238.550781 L 1129.167969 238.167969 C 1128.855469 238.152344 1128.550781 238.195312 1128.253906 238.304688 C 1127.960938 238.414062 1127.699219 238.574219 1127.472656 238.789062 C 1127.242188 239.007812 1127.066406 239.257812 1126.945312 239.546875 C 1126.820312 239.835938 1126.757812 240.136719 1126.757812 240.449219 L 1126.859375 252.160156 C 1126.859375 252.347656 1126.921875 252.511719 1127.050781 252.648438 C 1127.175781 252.785156 1127.332031 252.859375 1127.519531 252.871094 L 1128.203125 252.921875 C 1128.929688 252.972656 1129.363281 252.644531 1129.496094 251.933594 Z M 1146.683594 249.273438 L 1146.863281 239.257812 C 1146.863281 238.851562 1146.660156 238.609375 1146.253906 238.523438 L 1145.316406 238.320312 C 1144.335938 238.117188 1143.84375 238.523438 1143.84375 239.539062 L 1143.945312 251.679688 C 1143.949219 251.96875 1144.007812 252.242188 1144.125 252.503906 C 1144.238281 252.765625 1144.402344 252.996094 1144.609375 253.191406 C 1144.820312 253.382812 1145.058594 253.527344 1145.324219 253.625 C 1145.59375 253.71875 1145.867188 253.753906 1146.152344 253.734375 L 1161.007812 252.847656 C 1161.328125 252.8125 1161.445312 252.644531 1161.363281 252.339844 L 1161.160156 251.503906 C 1161.074219 251.199219 1160.878906 251.070312 1160.574219 251.121094 C 1156.433594 251.78125 1152.277344 251.738281 1148.105469 250.996094 C 1147.140625 250.808594 1146.667969 250.234375 1146.683594 249.273438 Z M 1146.683594 249.273438 " fill-opacity="1" fill-rule="nonzero"/></g><path fill="#000000" d="M 299.996094 200.449219 C 298.539062 212.953125 297.367188 221.210938 296.46875 225.214844 C 284 280.730469 235.097656 318.351562 179.023438 322.535156 C 178.71875 322.558594 178.421875 322.519531 178.132812 322.417969 C 177.84375 322.320312 177.585938 322.164062 177.359375 321.953125 C 177.132812 321.746094 176.957031 321.5 176.832031 321.214844 C 176.707031 320.933594 176.644531 320.636719 176.640625 320.328125 L 176.566406 307.019531 C 176.566406 306.039062 176.074219 305.523438 175.09375 305.472656 C 108.527344 302.632812 57.519531 253.960938 58.054688 187.113281 C 58.058594 186.882812 58.105469 186.660156 58.199219 186.449219 C 58.292969 186.238281 58.421875 186.054688 58.59375 185.894531 C 58.761719 185.734375 58.957031 185.613281 59.175781 185.53125 C 59.394531 185.445312 59.621094 185.410156 59.855469 185.414062 L 73.898438 185.796875 C 75.0625 185.828125 75.664062 185.265625 75.699219 184.097656 C 78.105469 117.125 129.667969 68.300781 195.347656 62.621094 C 197.445312 62.433594 198.5 63.390625 198.519531 65.484375 L 198.621094 78.238281 C 198.636719 79.25 199.152344 79.792969 200.164062 79.859375 C 206.351562 80.265625 213.09375 80.316406 218.695312 81.304688 C 276.773438 91.648438 318.195312 139.328125 317.207031 198.699219 C 317.207031 199.476562 316.816406 199.847656 316.039062 199.816406 L 301.539062 199.128906 C 301.351562 199.121094 301.167969 199.148438 300.992188 199.210938 C 300.8125 199.273438 300.652344 199.363281 300.507812 199.484375 C 300.367188 199.609375 300.25 199.753906 300.160156 199.917969 C 300.070312 200.085938 300.015625 200.261719 299.996094 200.449219 Z M 109.4375 186.429688 L 95.394531 186.226562 C 95.132812 186.21875 94.878906 186.265625 94.636719 186.363281 C 94.394531 186.460938 94.179688 186.605469 93.996094 186.792969 C 93.8125 186.980469 93.675781 187.199219 93.585938 187.441406 C 93.492188 187.6875 93.453125 187.941406 93.46875 188.203125 C 95.496094 235.886719 128.730469 268.285156 175.578125 269.78125 C 175.792969 269.785156 176.003906 269.832031 176.199219 269.921875 C 176.398438 270.007812 176.574219 270.132812 176.726562 270.289062 C 176.878906 270.445312 176.996094 270.621094 177.078125 270.824219 C 177.15625 271.027344 177.199219 271.234375 177.199219 271.453125 L 177.273438 285.421875 C 177.273438 285.597656 177.308594 285.769531 177.378906 285.929688 C 177.449219 286.09375 177.550781 286.234375 177.679688 286.355469 C 177.8125 286.476562 177.960938 286.566406 178.128906 286.621094 C 178.296875 286.679688 178.46875 286.703125 178.644531 286.6875 C 225.996094 283.417969 260.878906 246.890625 264.351562 199.964844 C 264.417969 198.96875 264.953125 198.496094 265.949219 198.546875 L 278.75 199.105469 C 280.710938 199.1875 281.691406 198.257812 281.691406 196.316406 C 282.046875 150.203125 244.605469 116.3125 199.429688 115.375 C 198.6875 115.355469 198.308594 114.976562 198.289062 114.234375 L 198.164062 100.339844 C 198.160156 99.96875 198.078125 99.613281 197.921875 99.273438 C 197.765625 98.9375 197.546875 98.648438 197.261719 98.40625 C 196.980469 98.164062 196.660156 97.992188 196.304688 97.894531 C 195.949219 97.792969 195.585938 97.773438 195.222656 97.832031 C 147.894531 105.335938 113.898438 136.769531 111.0625 184.933594 C 110.992188 185.929688 110.453125 186.429688 109.4375 186.429688 Z M 109.4375 186.429688 " fill-opacity="1" fill-rule="nonzero"/><path fill="#ffffff" d="M 111.0625 184.933594 C 113.898438 136.769531 147.894531 105.335938 195.222656 97.832031 C 195.585938 97.773438 195.949219 97.792969 196.304688 97.894531 C 196.660156 97.992188 196.980469 98.164062 197.261719 98.40625 C 197.546875 98.648438 197.765625 98.9375 197.921875 99.273438 C 198.078125 99.613281 198.160156 99.96875 198.164062 100.339844 L 198.289062 114.234375 C 198.308594 114.976562 198.6875 115.355469 199.429688 115.375 C 244.605469 116.3125 282.046875 150.203125 281.691406 196.316406 C 281.691406 198.257812 280.710938 199.1875 278.75 199.105469 L 265.949219 198.546875 C 264.953125 198.496094 264.417969 198.96875 264.351562 199.964844 C 260.878906 246.890625 225.996094 283.417969 178.644531 286.6875 C 178.46875 286.703125 178.296875 286.679688 178.128906 286.621094 C 177.960938 286.566406 177.8125 286.476562 177.679688 286.355469 C 177.550781 286.234375 177.449219 286.09375 177.378906 285.929688 C 177.308594 285.769531 177.273438 285.597656 177.273438 285.421875 L 177.199219 271.453125 C 177.199219 271.234375 177.15625 271.027344 177.078125 270.824219 C 176.996094 270.621094 176.878906 270.445312 176.726562 270.289062 C 176.574219 270.132812 176.398438 270.007812 176.199219 269.921875 C 176.003906 269.835938 175.792969 269.785156 175.578125 269.78125 C 128.730469 268.285156 95.496094 235.886719 93.46875 188.203125 C 93.453125 187.941406 93.492188 187.6875 93.585938 187.441406 C 93.675781 187.199219 93.8125 186.980469 93.996094 186.792969 C 94.179688 186.605469 94.394531 186.460938 94.636719 186.363281 C 94.878906 186.265625 95.132812 186.21875 95.394531 186.226562 L 109.4375 186.429688 C 110.453125 186.429688 110.992188 185.929688 111.0625 184.933594 Z M 111.0625 184.933594 " fill-opacity="1" fill-rule="nonzero"/></svg>